<svg width="26" height="26" viewBox="0 0 26 26" fill="none" xmlns="http://www.w3.org/2000/svg">
<path d="M12.9998 0C7.4752 0 2.98077 4.49502 2.98077 10.0202C2.98077 13.9682 4.63364 17.9617 7.7607 21.569C10.0963 24.2634 12.4109 25.7899 12.5084 25.8537C12.6576 25.9513 12.8288 26 12.9999 26C13.1709 26 13.342 25.9513 13.4914 25.8537C13.5887 25.7899 15.9037 24.2634 18.2393 21.5692C21.3666 17.9617 23.0196 13.9682 23.0196 10.0202C23.0195 4.49502 18.5246 0 12.9998 0ZM12.9998 23.999C11.1571 22.6259 4.77711 17.3413 4.77711 10.0202C4.77711 5.48552 8.4657 1.79633 12.9998 1.79633C17.5342 1.79633 21.2231 5.48552 21.2231 10.0202C21.2231 17.3413 14.8426 22.6259 12.9998 23.999Z" fill="#354657"/>
<path d="M13.0004 6.0415C10.8077 6.0415 9.0238 7.8255 9.0238 10.0185C9.0238 12.2108 10.8077 13.9945 13.0004 13.9945C15.1931 13.9945 16.9769 12.2108 16.9769 10.0185C16.9769 7.82562 15.193 6.0415 13.0004 6.0415ZM13.0004 12.1981C11.7982 12.1981 10.8201 11.2203 10.8201 10.0185C10.8201 8.816 11.7982 7.83784 13.0004 7.83784C14.2025 7.83784 15.1806 8.816 15.1806 10.0185C15.1806 11.2203 14.2025 12.1981 13.0004 12.1981Z" fill="#354657"/>
</svg>
