<svg width="26" height="26" viewBox="0 0 26 26" fill="none" xmlns="http://www.w3.org/2000/svg">
<path d="M21.4212 7.59334L13.0016 15.0127L4.58015 7.59323C4.24483 7.29781 3.7337 7.33028 3.43839 7.66539C3.14318 8.0006 3.17532 8.51174 3.51065 8.80716L12.4669 16.6978C12.6198 16.8324 12.8108 16.8997 13.0017 16.8997C13.1926 16.8997 13.3837 16.8324 13.5366 16.6977L22.491 8.80705C22.8261 8.51174 22.8584 8.0005 22.5631 7.66528C22.2675 7.33039 21.7565 7.29803 21.4212 7.59334Z" fill="#354657"/>
<path d="M23.5732 4.15564H2.42677C1.0887 4.15564 0 5.24424 0 6.58241V19.4176C0 20.7557 1.0887 21.8443 2.42677 21.8443H23.5732C24.9113 21.8443 26 20.7557 26 19.4176V6.58241C26 5.24434 24.9113 4.15564 23.5732 4.15564ZM24.3822 19.4176C24.3822 19.8635 24.0193 20.2265 23.5732 20.2265H2.42677C1.98068 20.2265 1.61785 19.8635 1.61785 19.4176V6.58241C1.61785 6.13642 1.98068 5.77349 2.42677 5.77349H23.5732C24.0193 5.77349 24.3822 6.13642 24.3822 6.58241V19.4176Z" fill="#354657"/>
</svg>
