<svg width="26" height="26" viewBox="0 0 26 26" fill="none" xmlns="http://www.w3.org/2000/svg">
<g clip-path="url(#clip0_14:358)">
<path d="M22.231 3.40596C20.0345 1.20945 17.1139 -0.000122852 14.0078 9.35874e-09C13.4987 9.35874e-09 13.0863 0.412568 13.0863 0.921459C13.0863 1.43035 13.4989 1.84292 14.0078 1.84292C16.6218 1.84279 19.0793 2.8607 20.9278 4.70914C22.7764 6.55759 23.7943 9.0153 23.7941 11.6294C23.7941 12.1383 24.2066 12.5509 24.7156 12.5509C25.2245 12.5509 25.6371 12.1383 25.6371 11.6295C25.6372 8.523 24.4276 5.60247 22.231 3.40596Z" fill="#354657"/>
<path d="M18.4405 11.6295C18.4405 12.1384 18.853 12.551 19.3621 12.5508C19.8709 12.5508 20.2834 12.1383 20.2834 11.6294C20.2831 8.16961 17.4679 5.3545 14.0079 5.354C14.0078 5.354 14.0079 5.354 14.0078 5.354C13.4989 5.354 13.0864 5.76645 13.0863 6.27534C13.0863 6.78423 13.4987 7.1968 14.0076 7.19692C16.4517 7.19729 18.4402 9.18567 18.4405 11.6295Z" fill="#354657"/>
<path d="M16.4018 16.3277C14.9972 16.255 14.2817 17.2996 13.9385 17.8013C13.6512 18.2214 13.7588 18.7948 14.1788 19.0822C14.5989 19.3695 15.1723 19.2619 15.4597 18.8418C15.8651 18.249 16.0488 18.1558 16.298 18.1676C17.0954 18.2613 20.2364 20.563 20.5509 21.2827C20.6298 21.4947 20.6268 21.7024 20.5422 21.9552C20.2124 22.9339 19.6666 23.6216 18.9633 23.944C18.2952 24.2503 17.4761 24.2226 16.595 23.864C13.3052 22.5231 10.431 20.6518 8.05237 18.302C8.05139 18.301 8.0504 18.3002 8.04954 18.2992C5.70462 15.9229 3.83676 13.0524 2.49806 9.76757C2.13943 8.8858 2.11166 8.06656 2.41796 7.39856C2.74034 6.6953 3.42812 6.14943 4.40597 5.82004C4.65956 5.73502 4.86695 5.73232 5.07692 5.81046C5.79922 6.12609 8.10078 9.26691 8.19366 10.0554C8.20693 10.3139 8.11294 10.4975 7.52063 10.9022C7.10044 11.1892 6.99245 11.7626 7.27957 12.1828C7.56658 12.603 8.13985 12.7108 8.56016 12.4238C9.06217 12.081 10.1065 11.3675 10.034 9.95813C9.95414 8.48601 7.09049 4.5875 5.72219 4.08438C5.11365 3.85758 4.47355 3.85365 3.81894 4.07332C2.34608 4.56931 1.28235 5.45367 0.742745 6.63068C0.219357 7.77255 0.235943 9.09736 0.791276 10.4626C2.22396 13.9779 4.22844 17.0537 6.74894 19.6049C6.75508 19.6112 6.76134 19.6173 6.76773 19.6234C9.3171 22.1392 12.3894 24.14 15.9 25.571C16.603 25.8569 17.2953 26 17.9574 26C18.5808 26 19.1777 25.8732 19.7313 25.6194C20.9084 25.0799 21.7927 24.0163 22.289 22.5424C22.5082 21.8891 22.5047 21.2492 22.2796 20.6435C21.7747 19.2715 17.8762 16.4078 16.4018 16.3277Z" fill="#354657"/>
</g>
<defs>
<clipPath id="clip0_14:358">
<rect width="26" height="26" fill="white"/>
</clipPath>
</defs>
</svg>
